<svg width="1200" height="630" viewBox="0 0 1200 630" role="img" xmlns="http://www.w3.org/2000/svg">
<defs>
  <radialGradient id="bg" cx="40%" cy="50%" r="70%">
    <stop offset="0%" stop-color="#0f1f0a"/>
    <stop offset="100%" stop-color="#030804"/>
  </radialGradient>
  <radialGradient id="goldglow" cx="50%" cy="50%" r="50%">
    <stop offset="0%" stop-color="#C9A84C" stop-opacity="0.12"/>
    <stop offset="100%" stop-color="#C9A84C" stop-opacity="0"/>
  </radialGradient>
  <radialGradient id="bluepulse" cx="75%" cy="30%" r="40%">
    <stop offset="0%" stop-color="#1a4a6e" stop-opacity="0.35"/>
    <stop offset="100%" stop-color="#1a4a6e" stop-opacity="0"/>
  </radialGradient>
</defs>
<rect width="1200" height="630" fill="url(#bg)"/>
<rect width="1200" height="630" fill="url(#goldglow)"/>
<rect width="1200" height="630" fill="url(#bluepulse)"/>
<line x1="0" y1="390" x2="1200" y2="390" stroke="#C9A84C" stroke-width="0.5" opacity="0.12"/>
<line x1="0" y1="435" x2="1200" y2="435" stroke="#C9A84C" stroke-width="0.5" opacity="0.08"/>
<line x1="0" y1="470" x2="1200" y2="470" stroke="#C9A84C" stroke-width="0.5" opacity="0.06"/>
<line x1="0" y1="500" x2="1200" y2="500" stroke="#C9A84C" stroke-width="0.5" opacity="0.04"/>
<line x1="0" y1="525" x2="1200" y2="525" stroke="#C9A84C" stroke-width="0.5" opacity="0.03"/>
<line x1="600" y1="320" x2="-40" y2="630" stroke="#C9A84C" stroke-width="0.5" opacity="0.1"/>
<line x1="600" y1="320" x2="200" y2="630" stroke="#C9A84C" stroke-width="0.5" opacity="0.1"/>
<line x1="600" y1="320" x2="460" y2="630" stroke="#C9A84C" stroke-width="0.5" opacity="0.1"/>
<line x1="600" y1="320" x2="600" y2="630" stroke="#C9A84C" stroke-width="0.5" opacity="0.1"/>
<line x1="600" y1="320" x2="740" y2="630" stroke="#C9A84C" stroke-width="0.5" opacity="0.1"/>
<line x1="600" y1="320" x2="1000" y2="630" stroke="#C9A84C" stroke-width="0.5" opacity="0.1"/>
<line x1="600" y1="320" x2="1240" y2="630" stroke="#C9A84C" stroke-width="0.5" opacity="0.1"/>
<polyline points="80,70 80,110 120,110" fill="none" stroke="#C9A84C" stroke-width="1" opacity="0.5"/>
<polyline points="1120,70 1120,110 1080,110" fill="none" stroke="#C9A84C" stroke-width="1" opacity="0.5"/>
<polyline points="80,560 80,520 120,520" fill="none" stroke="#C9A84C" stroke-width="1" opacity="0.5"/>
<polyline points="1120,560 1120,520 1080,520" fill="none" stroke="#C9A84C" stroke-width="1" opacity="0.5"/>
<circle cx="980" cy="130" r="2" fill="#C9A84C" opacity="0.5"/>
<circle cx="1010" cy="112" r="1.4" fill="#C9A84C" opacity="0.35"/>
<circle cx="1040" cy="140" r="1.8" fill="#C9A84C" opacity="0.3"/>
<circle cx="1000" cy="155" r="1.2" fill="#C9A84C" opacity="0.25"/>
<circle cx="1025" cy="125" r="1" fill="#4a9eff" opacity="0.4"/>
<line x1="980" y1="130" x2="1010" y2="112" stroke="#C9A84C" stroke-width="0.6" opacity="0.2"/>
<line x1="1010" y1="112" x2="1040" y2="140" stroke="#C9A84C" stroke-width="0.6" opacity="0.2"/>
<line x1="980" y1="130" x2="1000" y2="155" stroke="#C9A84C" stroke-width="0.6" opacity="0.2"/>
<line x1="1025" y1="125" x2="1040" y2="140" stroke="#4a9eff" stroke-width="0.6" opacity="0.2"/>
<text x="600" y="230" text-anchor="middle" font-family="Georgia, serif" font-size="18" letter-spacing="14" fill="#4a9eff" opacity="0.7">AI-POWERED PRODUCTION</text>
<text x="600" y="330" text-anchor="middle" font-family="Georgia, serif" font-size="96" font-weight="300" fill="#FAF8F3" letter-spacing="12">NORTHBOUND</text>
<rect x="480" y="348" width="240" height="0.8" fill="#C9A84C" opacity="0.6"/>
<text x="600" y="390" text-anchor="middle" font-family="Georgia, serif" font-size="26" font-weight="300" fill="#FAF8F3" letter-spacing="28" opacity="0.55">VIDEO.CO</text>
<text x="600" y="450" text-anchor="middle" font-family="Georgia, serif" font-size="20" font-weight="300" fill="#FAF8F3" opacity="0.38" letter-spacing="3">Cinematic production for properties that demand to be seen.</text>
<text x="600" y="530" text-anchor="middle" font-family="Georgia, serif" font-size="14" letter-spacing="8" fill="#C9A84C" opacity="0.55">LUXURY · CINEMATIC · WORLDWIDE</text>
</svg>
